<svg width="15" height="15" viewBox="0 0 15 15" fill="none" xmlns="http://www.w3.org/2000/svg">
<g id="more_vert">
<path id="Vector" d="M7.6183 4.7698C8.27163 4.7698 8.80618 4.23526 8.80618 3.58192C8.80618 2.92859 8.27163 2.39404 7.6183 2.39404C6.96497 2.39404 6.43042 2.92859 6.43042 3.58192C6.43042 4.23526 6.96497 4.7698 7.6183 4.7698ZM7.6183 5.95768C6.96497 5.95768 6.43042 6.49223 6.43042 7.14556C6.43042 7.79889 6.96497 8.33344 7.6183 8.33344C8.27163 8.33344 8.80618 7.79889 8.80618 7.14556C8.80618 6.49223 8.27163 5.95768 7.6183 5.95768ZM7.6183 9.52132C6.96497 9.52132 6.43042 10.0559 6.43042 10.7092C6.43042 11.3625 6.96497 11.8971 7.6183 11.8971C8.27163 11.8971 8.80618 11.3625 8.80618 10.7092C8.80618 10.0559 8.27163 9.52132 7.6183 9.52132Z" fill="#79747E"/>
</g>
</svg>
