<svg width="16" height="13" viewBox="0 0 16 13" fill="none" xmlns="http://www.w3.org/2000/svg">
<g id="share">
<path id="Vector" d="M11.5819 8.51517C11.1305 8.51517 10.7267 8.6679 10.4178 8.90717L6.18303 6.79444C6.21273 6.67735 6.23649 6.56026 6.23649 6.43808C6.23649 6.3159 6.21273 6.1988 6.18303 6.08171L10.3703 3.98935C10.691 4.2439 11.1127 4.40171 11.5819 4.40171C12.5679 4.40171 13.3638 3.71953 13.3638 2.87444C13.3638 2.02935 12.5679 1.34717 11.5819 1.34717C10.596 1.34717 9.80012 2.02935 9.80012 2.87444C9.80012 2.99662 9.82388 3.11371 9.85358 3.2308L5.66631 5.32317C5.34558 5.06862 4.92388 4.9108 4.45467 4.9108C3.46873 4.9108 2.67285 5.59299 2.67285 6.43808C2.67285 7.28317 3.46873 7.96535 4.45467 7.96535C4.92388 7.96535 5.34558 7.80753 5.66631 7.55299L9.89515 9.6708C9.86546 9.77771 9.84764 9.88971 9.84764 10.0017C9.84764 10.8214 10.6257 11.4883 11.5819 11.4883C12.5382 11.4883 13.3162 10.8214 13.3162 10.0017C13.3162 9.18208 12.5382 8.51517 11.5819 8.51517ZM11.5819 2.36535C11.9086 2.36535 12.1759 2.59444 12.1759 2.87444C12.1759 3.15444 11.9086 3.38353 11.5819 3.38353C11.2553 3.38353 10.988 3.15444 10.988 2.87444C10.988 2.59444 11.2553 2.36535 11.5819 2.36535ZM4.45467 6.94717C4.128 6.94717 3.86073 6.71808 3.86073 6.43808C3.86073 6.15808 4.128 5.92899 4.45467 5.92899C4.78134 5.92899 5.04861 6.15808 5.04861 6.43808C5.04861 6.71808 4.78134 6.94717 4.45467 6.94717ZM11.5819 10.521C11.2553 10.521 10.988 10.2919 10.988 10.0119C10.988 9.7319 11.2553 9.5028 11.5819 9.5028C11.9086 9.5028 12.1759 9.7319 12.1759 10.0119C12.1759 10.2919 11.9086 10.521 11.5819 10.521Z" fill="#79747E"/>
</g>
</svg>
