<svg width="17" height="16" viewBox="0 0 17 16" fill="none" xmlns="http://www.w3.org/2000/svg">
<g id="thumb_up" clip-path="url(#clip0_491_256)">
<path id="Vector" d="M6.65479 14.2546H12.7639C13.3273 14.2546 13.8092 13.9364 14.0128 13.4783L16.0628 8.99189C16.1239 8.84553 16.1578 8.6928 16.1578 8.52734V7.25462C16.1578 6.55462 15.5469 5.98189 14.8002 5.98189H10.5171L11.1619 3.07371L11.1823 2.87007C11.1823 2.60916 11.0669 2.36734 10.8836 2.19553L10.1641 1.52734L5.69091 5.72098C5.44655 5.95007 5.29721 6.26825 5.29721 6.61825V12.9819C5.29721 13.6819 5.90812 14.2546 6.65479 14.2546ZM6.65479 6.61825L9.60073 3.85643L8.69115 7.25462H14.8002V8.52734L12.7639 12.9819H6.65479V6.61825ZM1.22449 6.61825H3.93964V14.2546H1.22449V6.61825Z" fill="#79747E"/>
</g>
<defs>
<clipPath id="clip0_491_256">
<rect width="16.2909" height="15.2727" fill="white" transform="translate(0.545654 0.254395)"/>
</clipPath>
</defs>
</svg>
